Coordinates
version=1
nRows=6
nColumns=36
inDegrees=yes

Units are S.I. units (second, meters, Newtons, ...)
If the header above contains a line with 'inDegrees', this indicates whether rotational values are in degrees (yes) or radians (no).

endheader
time	pelvis_tilt	pelvis_list	pelvis_rotation	pelvis_tx	pelvis_ty	pelvis_tz	hip_flexion_r	hip_adduction_r	hip_rotation_r	knee_angle_r	knee_angle_r_beta	ankle_angle_r	subtalar_angle_r	mtp_angle_r	hip_flexion_l	hip_adduction_l	hip_rotation_l	knee_angle_l	knee_angle_l_beta	ankle_angle_l	subtalar_angle_l	mtp_angle_l	lumbar_extension	lumbar_bending	lumbar_rotation	arm_flex_r	arm_add_r	arm_rot_r	elbow_flex_r	pro_sup_r	arm_flex_l	arm_add_l	arm_rot_l	elbow_flex_l	pro_sup_l
      5.30000000	    -10.10151961	     -6.85579482	      2.65851699	      0.83738918	      0.96751683	      0.01236660	     38.95736818	      6.40592366	      4.82654251	     24.68868392	      0.43089882	      0.78651102	    -14.81065509	     -7.49999987	     21.80747517	      2.39961903	     10.17217381	     21.23418833	      0.37060650	      5.42857761	    -15.09114743	     -7.49999987	    -12.61463837	      6.68039693	     -0.26331912	     57.59829467	      9.73161782	     70.02480758	    130.90290620	     89.36864474	     43.30533673	     -7.71546662	     70.01798473	    123.34636834	     82.16613506
      5.31666670	     -9.50697031	     -7.07400655	      2.95999198	      0.84099856	      0.97376174	      0.01459932	     37.06080784	      6.69941173	      4.86355404	     25.53942098	      0.44574699	      2.02254251	    -15.14311547	     -7.49999987	     20.28501650	      1.84234488	      9.82154462	     19.75434204	      0.34477831	      5.26579108	    -14.04955391	     -7.49999987	    -11.47224236	      7.03076977	     -0.47264412	     56.51443622	      9.66530865	     69.74341725	    130.82902313	     89.11331365	     41.93232139	     -6.73801838	     70.45715034	    124.39092761	     81.59262392
      5.33333330	     -9.13193281	     -7.22193585	      3.06695684	      0.84109352	      0.97837092	      0.01501258	     35.56622781	      7.10208424	      5.45429801	     27.34489703	      0.47725849	      3.16725570	    -15.40997902	     -7.49999987	     19.04297702	      1.45283892	      9.76392419	     18.28815058	      0.31918844	      4.77383649	    -13.53995905	     -7.49999987	    -10.42086642	      7.04237768	     -0.74378739	     55.38872180	      9.35810171	     69.15812905	    130.89007101	     88.72549329	     41.37291510	     -6.49804961	     70.34395787	    124.03179161	     80.94298884
      5.35000000	     -9.05247351	     -7.26177742	      3.14555342	      0.84068295	      0.98068068	      0.01452091	     34.37558192	      7.27279677	      5.96502056	     28.33870722	      0.49460375	      3.90901638	    -15.64762348	     -7.49999987	     17.80335267	      1.16499108	      9.69463404	     16.25650219	      0.28372949	      3.92538505	    -12.93677749	     -7.49999987	     -9.23104989	      6.80385605	     -0.99663517	     54.62397807	      9.20074812	     68.94099270	    130.95153045	     88.64282650	     40.77925905	     -6.51746847	     69.98955063	    123.70935070	     80.68518277
      5.36666670	     -8.88115754	     -7.12410811	      3.00375373	      0.84084243	      0.98497316	      0.01570989	     33.09673839	      7.42718448	      6.44747708	     28.77660518	      0.50224651	      4.78491800	    -15.59024259	     -7.49999987	     15.98630770	      1.03214332	      9.86650856	     13.34715468	      0.23295179	      2.66543844	    -12.96024174	     -7.49999987	     -8.50284514	      6.25594219	     -1.06622866	     53.94306384	      9.34164577	     68.74055963	    131.02769606	     88.39168338	     39.77951036	     -6.68291467	     69.29666792	    123.00749806	     79.76559538
      5.38333330	     -8.68699383	     -7.04478593	      3.28448526	      0.84953611	      0.98547402	      0.01598150	     31.54671354	      7.67090896	      6.92853929	     28.78428635	      0.50238057	      6.16213169	    -14.91430678	     -7.49999987	     14.49931847	      0.91281373	      9.87414814	     11.18534068	      0.19522102	      1.76348692	    -12.63351558	     -7.49999987	     -7.44999191	      5.90506177	     -1.40589159	     53.08578201	      9.08899143	     68.78283659	    131.40118470	     87.07915450	     38.99094523	     -6.67743189	     69.20236922	    122.24457006	     77.69017937
